<svg xmlns="http://www.w3.org/2000/svg" version="1.0" width="600.000000pt" height="600.000000pt" viewBox="0 0 600.000000 600.000000" preserveAspectRatio="xMidYMid meet">

<g transform="translate(0.000000,600.000000) scale(0.100000,-0.100000)" fill="#c7487c" stroke="none">
<path d="M2885 5303 c-337 -40 -577 -138 -806 -329 -134 -112 -243 -248 -324 -409 -98 -193 -139 -361 -139 -575 0 -398 175 -746 514 -1022 l44 -36 -26 -139 c-24 -123 -388 -1980 -404 -2060 l-6 -33 1256 0 c876 0 1256 3 1256 11 0 5 -4 29 -10 52 -5 23 -48 238 -95 477 -46 239 -139 711 -205 1049 -66 337 -120 623 -120 636 0 13 9 26 24 33 13 6 67 52 121 103 274 263 411 576 408 939 -1 215 -48 401 -149 589 -176 327 -489 570 -864 670 -140 38 -360 58 -475 44z m366 -406 c491 -127 797 -583 714 -1062 -61 -350 -323 -632 -690 -741 -110 -32 -328 -44 -451 -24 -378 60 -681 330 -786 697 -19 65 -22 102 -22 228 1 134 3 160 28 239 51 169 134 305 257 421 146 137 313 221 515 260 117 22 312 14 435 -18z m228 -2183 c12 -15 21 -36 21 -48 0 -11 -55 -93 -123 -181 -67 -88 -206 -268 -307 -400 -101 -132 -229 -298 -284 -370 -253 -330 -358 -469 -362 -479 -3 -8 186 -11 660 -11 636 -1 665 -1 685 -19 21 -19 28 -70 13 -92 -22 -33 -48 -34 -787 -34 -739 0 -765 1 -787 34 -21 31 -6 73 50 146 32 41 147 192 257 335 109 143 223 292 253 330 341 442 471 612 490 641 l22 34 -398 0 c-387 0 -399 1 -417 20 -10 11 -18 34 -18 50 0 16 8 39 18 50 18 20 30 20 506 20 l488 0 20 -26z" fill="#c7487c"/>
</g>
</svg>